<?xml version="1.0" encoding="utf-8"?>
<!-- Generator: Adobe Illustrator 25.1.0, SVG Export Plug-In . SVG Version: 6.00 Build 0)  -->
<svg version="1.1" id="Layer_1" xmlns="http://www.w3.org/2000/svg" xmlns:xlink="http://www.w3.org/1999/xlink" x="0px" y="0px"
	 viewBox="0 0 1922 1637" style="enable-background:new 0 0 1922 1637;" xml:space="preserve">
<style type="text/css">
	.st0{fill:url(#SVGID_1_);}
	.st1{fill:url(#SVGID_2_);filter:url(#Adobe_OpacityMaskFilter);}
	.st2{mask:url(#mask0_1_);}
	.st3{fill:#8C80FC;}
	.st4{fill:#59B1FE;}
	.st5{fill:#6E9CFD;}
	.st6{fill:#7E8DFC;}
	.st7{fill:#58B4FE;}
	.st8{fill:#52B7FE;}
</style>
<linearGradient id="SVGID_1_" gradientUnits="userSpaceOnUse" x1="4597.3818" y1="-1127.4156" x2="2286.9822" y2="-2125.2158" gradientTransform="matrix(-1 0 0 1 4436 2432)">
	<stop  offset="0" style="stop-color:#35D3FF"/>
	<stop  offset="1" style="stop-color:#A963FB"/>
</linearGradient>
<rect x="0" y="0.3" class="st0" width="1922" height="1639"/>
<defs>
	<filter id="Adobe_OpacityMaskFilter" filterUnits="userSpaceOnUse" x="-70" y="-108.5" width="2056.6" height="1923.9">
		<feColorMatrix  type="matrix" values="1 0 0 0 0  0 1 0 0 0  0 0 1 0 0  0 0 0 1 0"/>
	</filter>
</defs>
<mask maskUnits="userSpaceOnUse" x="-70" y="-108.5" width="2056.6" height="1923.9" id="mask0_1_">
	
		<linearGradient id="SVGID_2_" gradientUnits="userSpaceOnUse" x1="-723.9762" y1="653.0172" x2="1585.5452" y2="1651.6432" gradientTransform="matrix(1 0 0 -1 564 1958)">
		<stop  offset="0" style="stop-color:#35D3FF"/>
		<stop  offset="1" style="stop-color:#A963FB"/>
	</linearGradient>
	<path class="st1" d="M1923,1638.3H1L1,1.3l961,0l961,0V1638.3z"/>
</mask>
<g class="st2">
	<path class="st3" d="M1390-22.4c0,329.2,267.3,596.4,596.6,596.4V-22.4H1390z"/>
	<path class="st4" d="M1422.7,1815.4c0-329.2-267.3-596.4-596.6-596.4v596.4H1422.7z"/>
	<path class="st5" d="M699.2,509.7c0,329.2,267.3,596.4,596.6,596.4V509.7H699.2z"/>
	<path class="st6" d="M1971.6,829.2c-318.3,0-576.6,252.1-576.6,562.8h576.6V829.2z"/>
	<path class="st7" d="M-54,1127.9c318.3,0,576.6,252.2,576.6,562.8H-54V1127.9z"/>
	<path class="st8" d="M499.6-108.5C499.6,206,244.5,461.3-70,461.3l0-569.7H499.6z"/>
</g>
</svg>
