<?xml version="1.0" encoding="utf-8"?>
<!-- Generator: Adobe Illustrator 25.1.0, SVG Export Plug-In . SVG Version: 6.00 Build 0)  -->
<svg version="1.1" id="Layer_1" xmlns="http://www.w3.org/2000/svg" xmlns:xlink="http://www.w3.org/1999/xlink" x="0px" y="0px"
	 viewBox="0 0 30 30" style="enable-background:new 0 0 30 30;" xml:space="preserve">
<style type="text/css">
	.st0{fill-rule:evenodd;clip-rule:evenodd;fill:#0985B9;}
</style>
<path class="st0" d="M20.1,8.7h0.2c3.1,0,5.7,2.6,5.7,5.8V21c0,3.2-2.5,5.8-5.7,5.8H9.5c-3.1,0-5.7-2.6-5.7-5.8v-6.4
	c0-3.2,2.5-5.8,5.7-5.8h0.2c0-1.4,0.6-2.7,1.5-3.7c1-1,2.2-1.5,3.6-1.5C17.8,3.5,20.1,5.8,20.1,8.7z M12.5,6.3c-0.6,0.7-1,1.5-1,2.4
	h6.9c0-1.9-1.6-3.5-3.4-3.5C14.1,5.3,13.2,5.6,12.5,6.3z M19.3,13.2c0.5,0,0.9-0.4,0.9-0.9V11c0-0.5-0.4-0.9-0.9-0.9
	c-0.5,0-0.9,0.4-0.9,0.9v1.4C18.4,12.8,18.8,13.2,19.3,13.2z M11.4,12.3c0,0.5-0.4,0.9-0.9,0.9c-0.5,0-0.9-0.4-0.9-0.9V11
	c0-0.5,0.4-0.9,0.9-0.9c0.5,0,0.9,0.4,0.9,0.9V12.3z"/>
</svg>
