<?xml version="1.0" encoding="utf-8"?>
<!-- Generator: Adobe Illustrator 25.1.0, SVG Export Plug-In . SVG Version: 6.00 Build 0)  -->
<svg version="1.1" id="Layer_1" xmlns="http://www.w3.org/2000/svg" xmlns:xlink="http://www.w3.org/1999/xlink" x="0px" y="0px"
	 viewBox="0 0 30 30" style="enable-background:new 0 0 30 30;" xml:space="preserve">
<style type="text/css">
	.st0{fill-rule:evenodd;clip-rule:evenodd;fill:#00A198;}
</style>
<path class="st0" d="M3.2,13.5c0-5.6,4.5-10.1,10-10.1c2.7,0,5.2,1.1,7.1,3c1.9,1.9,2.9,4.5,2.9,7.2c0,5.6-4.5,10.1-10,10.1
	C7.7,23.7,3.2,19.1,3.2,13.5z M23,21.7l3,2.4h0.1c0.6,0.6,0.6,1.6,0,2.2c-0.6,0.6-1.6,0.6-2.2,0l-2.5-2.8c-0.2-0.2-0.4-0.6-0.4-0.9
	c0-0.3,0.1-0.7,0.4-0.9C21.9,21.2,22.6,21.2,23,21.7z"/>
</svg>
