<?xml version="1.0" encoding="utf-8"?>
<!-- Generator: Adobe Illustrator 25.1.0, SVG Export Plug-In . SVG Version: 6.00 Build 0)  -->
<svg version="1.1" id="Layer_1" xmlns="http://www.w3.org/2000/svg" xmlns:xlink="http://www.w3.org/1999/xlink" x="0px" y="0px"
	 viewBox="0 0 30 30" style="enable-background:new 0 0 30 30;" xml:space="preserve">
<style type="text/css">
	.st0{fill-rule:evenodd;clip-rule:evenodd;fill:#FEAD86;}
</style>
<path class="st0" d="M9.5,3.5h10.9c4,0,6.2,2.3,6.2,6.2v10.9c0,4-2.3,6.2-6.2,6.2H9.5c-4,0-6.2-2.3-6.2-6.2V9.7
	C3.3,5.8,5.5,3.5,9.5,3.5z M15,22c0.5,0,0.9-0.4,1-0.9V9.2c0-0.4-0.1-0.7-0.4-0.9c-0.3-0.2-0.7-0.2-1,0C14.2,8.5,14,8.9,14,9.2v11.9
	C14.1,21.6,14.5,22,15,22z M20.4,22c0.5,0,0.9-0.4,1-0.9v-3.8c0-0.4-0.1-0.7-0.5-0.9c-0.3-0.2-0.7-0.2-1,0c-0.3,0.2-0.5,0.5-0.4,0.9
	v3.8C19.4,21.6,19.9,22,20.4,22z M10.5,21.1c0,0.5-0.5,0.9-1,0.9c-0.5,0-0.9-0.4-1-0.9v-8.1c0-0.4,0.1-0.7,0.5-0.9
	c0.3-0.2,0.7-0.2,1,0c0.3,0.2,0.5,0.6,0.5,0.9V21.1z"/>
</svg>
