<?xml version="1.0" encoding="utf-8"?>
<!-- Generator: Adobe Illustrator 25.1.0, SVG Export Plug-In . SVG Version: 6.00 Build 0)  -->
<svg version="1.1" id="Layer_1" xmlns="http://www.w3.org/2000/svg" xmlns:xlink="http://www.w3.org/1999/xlink" x="0px" y="0px"
	 viewBox="0 0 30 30" style="enable-background:new 0 0 30 30;" xml:space="preserve">
<style type="text/css">
	.st0{fill-rule:evenodd;clip-rule:evenodd;fill:#FFCF00;}
</style>
<path class="st0" d="M19.8,10.8c0,2.7-2.2,4.9-4.9,4.9c-2.7,0-4.9-2.2-4.9-4.9c0-2.7,2.2-4.9,4.9-4.9C17.6,5.8,19.8,8,19.8,10.8z
	 M14.9,24.5c-4,0-7.4-0.6-7.4-3.2c0-2.5,3.4-3.2,7.4-3.2c4,0,7.4,0.6,7.4,3.2C22.3,23.8,18.9,24.5,14.9,24.5z M21.9,10.9
	c0,1.4-0.4,2.7-1.1,3.8c-0.1,0.1,0,0.3,0.1,0.3c0.2,0,0.4,0,0.6,0.1c1.9,0.1,3.6-1.2,4.1-3.1c0.7-2.8-1.4-5.3-4-5.3
	c-0.3,0-0.6,0-0.8,0.1c0,0-0.1,0-0.1,0.1c0,0,0,0.1,0,0.1C21.4,8,21.9,9.4,21.9,10.9z M25.1,16.9c1.3,0.3,2.1,0.8,2.5,1.5
	c0.3,0.6,0.3,1.3,0,1.9c-0.5,1.2-2.3,1.5-2.9,1.6c-0.1,0-0.3-0.1-0.2-0.2c0.3-3.2-2.4-4.8-3.1-5.1c0,0,0,0,0-0.1c0,0,0,0,0,0
	C22.8,16.6,24.5,16.8,25.1,16.9z M8.4,15c0.2,0,0.4,0,0.6-0.1c0.1,0,0.2-0.2,0.1-0.3C8.4,13.6,8,12.3,8,10.9C8,9.4,8.4,8,9.2,6.9
	c0,0,0-0.1,0-0.1c0,0-0.1,0-0.1-0.1C8.9,6.7,8.6,6.7,8.3,6.7c-2.6,0-4.7,2.5-4,5.3C4.8,13.8,6.5,15,8.4,15z M8.6,16.6
	C8.6,16.7,8.6,16.7,8.6,16.6c-0.7,0.4-3.5,1.9-3.1,5.2c0,0.1-0.1,0.3-0.2,0.2c-0.7-0.1-2.4-0.5-2.9-1.6c-0.3-0.6-0.3-1.3,0-1.9
	c0.4-0.8,1.2-1.3,2.5-1.5C5.4,16.8,7.1,16.6,8.6,16.6C8.6,16.6,8.6,16.6,8.6,16.6z"/>
</svg>
