<?xml version="1.0" encoding="utf-8"?>
<!-- Generator: Adobe Illustrator 25.1.0, SVG Export Plug-In . SVG Version: 6.00 Build 0)  -->
<svg version="1.1" id="Layer_1" xmlns="http://www.w3.org/2000/svg" xmlns:xlink="http://www.w3.org/1999/xlink" x="0px" y="0px"
	 viewBox="0 0 30 30" style="enable-background:new 0 0 30 30;" xml:space="preserve">
<style type="text/css">
	.st0{fill-rule:evenodd;clip-rule:evenodd;fill:#75578E;}
</style>
<path class="st0" d="M15.3,3.4c0.2-0.2,0.4-0.3,0.7-0.2c5.3,0.2,9.8,4,10.6,9.2c0,0,0,0.1,0,0.1c0,0.2-0.1,0.5-0.2,0.7
	c-0.2,0.2-0.4,0.3-0.6,0.3l-9,0.6c-0.3,0-0.6-0.1-0.8-0.3c-0.2-0.2-0.3-0.5-0.3-0.8L15,4.2V4C15,3.8,15.1,3.6,15.3,3.4z M14.7,16.3
	l7.8-0.5l0.1,0c0.3,0,0.7,0.1,0.9,0.4c0.2,0.2,0.4,0.6,0.4,0.9c-0.3,4.5-3.6,8.2-8,9.1c-4.4,1-9-1.1-11.2-5c-0.6-1.1-1-2.4-1.2-3.7
	c-0.1-0.4-0.1-0.8-0.1-1.2c0-4.7,3.4-8.8,8.1-9.8c0.6-0.1,1.1,0.2,1.4,0.7c0.1,0.1,0.1,0.2,0.1,0.3c0.1,1.4,0.2,2.7,0.3,4.1
	c0.1,1.1,0.1,2.1,0.2,3.2c0,0.2,0,0.5,0.1,0.7C13.7,16.1,14.2,16.4,14.7,16.3z"/>
</svg>
