<?xml version="1.0" encoding="utf-8"?>
<!-- Generator: Adobe Illustrator 25.1.0, SVG Export Plug-In . SVG Version: 6.00 Build 0)  -->
<svg version="1.1" id="Layer_1" xmlns="http://www.w3.org/2000/svg" xmlns:xlink="http://www.w3.org/1999/xlink" x="0px" y="0px"
	 viewBox="0 0 259 64" style="enable-background:new 0 0 259 64;" xml:space="preserve">
<style type="text/css">
	.st0{clip-path:url(#SVGID_2_);}
	.st1{fill:#FFFFFF;}
</style>
<g>
	<defs>
		<rect id="SVGID_1_" x="-1.5" y="-0.3" width="259" height="64"/>
	</defs>
	<clipPath id="SVGID_2_">
		<use xlink:href="#SVGID_1_"  style="overflow:visible;"/>
	</clipPath>
	<g class="st0">
		<path class="st1" d="M37.7,21c-3.5-2.1-4.7-6.8-2.7-10.5c2-3.6,6.5-4.9,10-2.8c3.5,2.1,4.7,6.8,2.7,10.5S41.2,23.1,37.7,21z"/>
		<path class="st1" d="M92.8,33.9C98.6,23.3,95.1,9.6,85,3.5c-10.1-6.1-23.2-2.4-29,8.1L40.5,39.8C40.5,39.8,79.6,57.8,92.8,33.9z"
			/>
		<path class="st1" d="M5.9,31.3c-4.1,7.4-1.7,16.9,5.4,21.2c7,4.3,16.1,1.7,20.1-5.7l10.8-19.6C42.3,27.2,15,14.7,5.9,31.3z
			 M16.7,42.6c-1.8-1.1-2.5-3.6-1.4-5.5c1.1-1.9,3.4-2.6,5.3-1.5c1.8,1.1,2.5,3.6,1.4,5.5C21,43,18.6,43.7,16.7,42.6z"/>
		<path class="st1" d="M112.3,38.2c-1.5-0.9-2.7-2-3.5-3.6c-0.8-1.5-1.3-3.2-1.3-5.1c0-1.9,0.5-3.6,1.3-5.1c0.8-1.5,2-2.7,3.5-3.6
			c1.5-0.9,3.1-1.3,5-1.3c1.5,0,2.8,0.3,4.1,0.9c1.3,0.6,2.3,1.3,3.1,2.4l-2.2,2.2c-1.3-1.5-2.9-2.2-4.9-2.2c-1.3,0-2.4,0.3-3.4,0.9
			c-1,0.6-1.7,1.3-2.3,2.4c-0.6,1.1-0.8,2.2-0.8,3.5c0,1.3,0.3,2.5,0.8,3.5c0.6,1.1,1.4,1.8,2.3,2.4c1,0.6,2.1,0.9,3.4,0.9
			c1.9,0,3.6-0.8,4.9-2.3l2.2,2.2c-0.8,1.1-1.9,1.8-3.1,2.4c-1.3,0.6-2.7,0.9-4.1,0.9C115.5,39.5,113.7,39.1,112.3,38.2z"/>
		<path class="st1" d="M131,38.2c-1.5-0.9-2.7-2-3.6-3.6c-0.8-1.5-1.3-3.2-1.3-5.1c0-1.8,0.5-3.6,1.3-5.1c0.8-1.5,2-2.7,3.6-3.6
			c1.5-0.9,3.2-1.3,5-1.3c1.8,0,3.6,0.4,5,1.3c1.5,0.9,2.7,2,3.6,3.6c0.8,1.5,1.3,3.2,1.3,5.1c0,1.9-0.5,3.6-1.3,5.1
			c-0.8,1.5-2,2.7-3.6,3.6c-1.5,0.9-3.2,1.3-5,1.3C134.1,39.5,132.5,39.1,131,38.2z M139.4,35.5c1-0.6,1.7-1.3,2.3-2.4
			c0.6-1.1,0.8-2.2,0.8-3.5c0-1.3-0.3-2.4-0.8-3.5c-0.6-1.1-1.3-1.8-2.3-2.4c-1-0.6-2.1-0.9-3.3-0.9c-1.2,0-2.3,0.3-3.3,0.9
			c-1,0.6-1.7,1.3-2.3,2.4c-0.6,1.1-0.8,2.2-0.8,3.5c0,1.3,0.3,2.4,0.8,3.5c0.6,1.1,1.3,1.8,2.3,2.4c1,0.6,2.1,0.9,3.3,0.9
			C137.2,36.4,138.3,36.1,139.4,35.5z"/>
		<path class="st1" d="M166.3,39.2V26.5l-6.1,10.6h-1.6l-6.1-10.4v12.6h-3.2V20.1h2.8l7.3,12.7l7.2-12.7h2.8v19.2L166.3,39.2
			L166.3,39.2z"/>
		<path class="st1" d="M186.3,20.9c1.2,0.6,2.1,1.3,2.8,2.4c0.6,1.1,0.9,2.2,0.9,3.7c0,1.3-0.3,2.6-0.9,3.7
			c-0.6,1.1-1.6,1.8-2.8,2.4c-1.2,0.6-2.6,0.9-4.1,0.9H178v5.6h-3.4V20.2h7.5C183.7,20,185.1,20.3,186.3,20.9z M185.2,29.7
			c0.7-0.7,1.2-1.6,1.2-2.8c0-1.3-0.4-2.2-1.2-2.8c-0.7-0.7-1.9-1-3.4-1h-3.9v7.6h3.9C183.4,30.7,184.5,30.3,185.2,29.7z"/>
		<path class="st1" d="M204.2,34.8h-9.2l-1.8,4.4h-3.5L198,20h3.4l8.3,19.2h-3.6L204.2,34.8z M203.1,32l-3.5-8.4l-3.4,8.4H203.1z"/>
		<path class="st1" d="M228.3,20v19.2h-2.8l-10.1-13v13H212V20h2.8l10.1,13V20H228.3z"/>
		<path class="st1" d="M241.1,32.4v6.7h-3.4v-6.7l-7.2-12.5h3.7l5.3,9.3l5.4-9.3h3.4L241.1,32.4z"/>
	</g>
</g>
</svg>
