<?xml version="1.0" encoding="utf-8"?>
<!-- Generator: Adobe Illustrator 25.1.0, SVG Export Plug-In . SVG Version: 6.00 Build 0)  -->
<svg version="1.1" id="Layer_1" xmlns="http://www.w3.org/2000/svg" xmlns:xlink="http://www.w3.org/1999/xlink" x="0px" y="0px"
	 viewBox="0 0 30 30" style="enable-background:new 0 0 30 30;" xml:space="preserve">
<style type="text/css">
	.st0{fill-rule:evenodd;clip-rule:evenodd;fill:#8E7EFC;}
</style>
<path class="st0" d="M16.5,7.9h3.1c3.7,0,5.5,2,5.5,6v4.9c0,3.9-2.4,6.2-6.2,6.2h-7.5c-3.9,0-6.2-2.4-6.2-6.2v-7.5
	C5.1,7.1,6.9,5,10.5,5h1.6c0.9,0,1.8,0.4,2.4,1.2l0.9,1.2C15.6,7.6,16.1,7.9,16.5,7.9z M10.4,18.3h9.3c0.4,0,0.7-0.3,0.7-0.8
	c0-0.4-0.3-0.8-0.7-0.8h-9.3c-0.4,0-0.8,0.3-0.8,0.8C9.7,17.9,10,18.3,10.4,18.3z"/>
</svg>
