<?xml version="1.0" encoding="utf-8"?>
<!-- Generator: Adobe Illustrator 25.1.0, SVG Export Plug-In . SVG Version: 6.00 Build 0)  -->
<svg version="1.1" id="Layer_1" xmlns="http://www.w3.org/2000/svg" xmlns:xlink="http://www.w3.org/1999/xlink" x="0px" y="0px"
	 viewBox="0 0 30 30" style="enable-background:new 0 0 30 30;" xml:space="preserve">
<style type="text/css">
	.st0{fill-rule:evenodd;clip-rule:evenodd;fill:#4DBCFE;}
</style>
<path class="st0" d="M10.9,5h8.4c3.1,0,4.8,1.8,4.8,4.8v10.3c0,3.1-1.7,4.8-4.8,4.8h-8.4c-3,0-4.8-1.7-4.8-4.8V9.8
	C6.1,6.7,7.8,5,10.9,5z M11.1,9.6L11.1,9.6l3,0c0.4,0,0.8,0.4,0.8,0.8c0,0.4-0.4,0.8-0.8,0.8h-3c-0.4,0-0.8-0.4-0.8-0.8
	S10.7,9.6,11.1,9.6z M11.1,15.7H19c0.4,0,0.8-0.4,0.8-0.8c0-0.4-0.4-0.8-0.8-0.8h-7.8c-0.4,0-0.8,0.4-0.8,0.8
	C10.4,15.4,10.7,15.7,11.1,15.7z M11.1,20.3H19c0.4,0,0.7-0.4,0.7-0.8c0-0.4-0.3-0.8-0.7-0.8h-7.8c-0.3,0-0.6,0.1-0.8,0.4
	c-0.2,0.2-0.2,0.6,0,0.8C10.6,20.2,10.8,20.3,11.1,20.3z"/>
</svg>
